Coordinates
version=1
nRows=16
nColumns=33
inDegrees=yes

Units are S.I. units (second, meters, Newtons, ...)
Angles are in degrees.

endheader
time	ground_thorax_rot_x	ground_thorax_rot_y	ground_thorax_rot_z	ground_thorax_tx	ground_thorax_ty	ground_thorax_tz	clav_prot_r	clav_elev_r	scapula_abduction_r	scapula_elevation_r	scapula_upward_rot_r	scapula_winging_r	shoulder_elv_r	plane_of_elev_r	axial_rot_r	elbow_flexion_r	pro_sup_r	wrist_flex_r	wrist_dev_r	clav_prot_l	clav_elev_l	scapula_abduction_l	scapula_elevation_l	scapula_upward_rot_l	scapula_winging_l	shoulder_elv_l	plane_of_elev_l	axial_rot_l	elbow_flexion_l	pro_sup_l	wrist_flex_l	wrist_dev_l
      8.44000000	     29.45924403	     24.67390502	     37.39541561	    -52.50132069	    834.53170776	    -46.88243146	     13.14557690	     34.46262782	     26.37958191	     45.00000000	    -45.00000000	  -1889.29673332	  -2446.10293060	     21.68243143	   -161.04491712	   -360.77815003	    156.49326473	     12.95331779	     13.87312631	     -8.15125091	    -45.00000000	    -39.81467486	     45.00000000	    -45.00000000	  -2773.96180884	     79.34894487	     26.05136821	     29.48090196	   2150.48108281	     40.46730687	     13.81329392	    -18.16762232
      8.45000000	     29.63316441	     24.51374359	     37.07086413	    -53.90220827	    836.67674593	    -47.02740857	     13.18863801	     34.53625943	     26.55965059	     45.00000000	    -45.00000000	  -1889.48822510	  -2446.18510046	     21.71884219	   -161.25154836	   -360.79548328	    155.72072909	     12.96276430	     13.83576869	     -8.20957248	    -45.00000000	    -39.86496079	     45.00000000	    -45.00000000	  -2773.96903236	     79.41437890	     26.03770718	     29.61061321	   2150.55272476	     40.33590311	     13.80160872	    -18.36873860
      8.46000000	     29.86564170	     24.22897101	     36.70984070	    -55.25526699	    838.79403459	    -47.16416898	     13.14895140	     34.55043748	     26.88971565	     45.00000000	    -45.00000000	  -1889.62448417	  -2446.28361155	     21.73870974	   -161.45149418	   -360.81428627	    155.01656059	     12.99459765	     13.80034601	     -8.14799066	    -45.00000000	    -39.88935066	     45.00000000	    -45.00000000	  -2773.90343499	     79.48727418	     26.03771488	     29.70055458	   2150.59916398	     40.21569345	     13.80785742	    -18.60233470
      8.47000000	     29.90076848	     24.22796276	     36.55570099	    -56.56095550	    840.87511161	    -47.28896756	     13.11779739	     34.42060623	     26.74840834	     45.00000000	    -45.00000000	  -1889.68617438	  -2446.13352915	     21.76264563	   -161.60140731	   -360.94758968	    154.32233599	     13.01098733	     13.79366198	     -7.79230942	    -45.00000000	    -40.07047916	     45.00000000	    -45.00000000	  -2773.74500637	     79.55151757	     26.15340212	     29.86059244	   2150.61867809	     40.12893855	     13.79436985	    -18.72368851
      8.48000000	     30.09701034	     24.03911158	     36.27044586	    -57.82082502	    842.91501631	    -47.39836574	     13.13737021	     34.47708148	     26.95277463	     45.00000000	    -45.00000000	  -1889.84285998	  -2446.20114711	     21.81579506	   -161.81289064	   -360.96704106	    153.68490431	     13.03332241	     13.75937688	     -7.83316273	    -45.00000000	    -40.03065634	     45.00000000	    -45.00000000	  -2773.68802550	     79.63258630	     26.12904813	     29.87375371	   2150.68890846	     40.03555215	     13.78310841	    -18.95737121
      8.49000000	     30.16639340	     23.99320010	     36.05199386	    -59.03645737	    844.91045086	    -47.48950045	     13.16093647	     34.36266254	     26.86732855	     45.00000000	    -45.00000000	  -1889.90950800	  -2446.08934011	     21.84488946	   -161.97405631	   -361.13064483	    153.09947383	     13.06695387	     13.74617683	     -7.64151414	    -45.00000000	    -40.19447916	     45.00000000	    -45.00000000	  -2773.63064040	     79.71418389	     26.17936852	     29.94463972	   2150.70563389	     39.98497561	     13.75926210	    -19.09196082
      8.50000000	     30.36966562	     23.77281774	     35.73128492	    -60.20718522	    846.85640925	    -47.55945518	     13.11896034	     34.42666455	     27.13444607	     45.00000000	    -45.00000000	  -1890.02630897	  -2446.17770763	     21.89307712	   -162.15919755	   -361.05601632	    152.61800700	     13.08068962	     13.68308422	     -7.55242459	    -45.00000000	    -40.21791696	     45.00000000	    -45.00000000	  -2773.54408005	     79.75661605	     26.20924111	     29.97105721	   2150.74894765	     39.94021875	     13.73894364	    -19.35768797
      8.51000000	     30.59743592	     23.63184758	     35.34210775	    -61.32957104	    848.74776281	    -47.60570359	     13.11257936	     34.32667843	     27.14165805	     45.00000000	    -45.00000000	  -1890.08319929	  -2446.08568617	     21.98384215	   -162.18989220	   -361.08038733	    152.27285726	     13.09750734	     13.65549726	     -7.28964844	    -45.00000000	    -40.08004109	     45.00000000	    -45.00000000	  -2773.43443905	     79.79476681	     26.48600725	     30.09155733	   2150.74956553	     39.94441825	     13.77859301	    -19.62381752
      8.52000000	     30.48457249	     23.73650009	     35.39902937	    -62.39904649	    850.57803746	    -47.62663747	     13.21035844	     34.22753541	     26.94585642	     45.00000000	    -45.00000000	  -1890.15694282	  -2445.99382300	     21.92730795	   -162.36303687	   -361.30032676	    151.93591025	     13.17326425	     13.61633023	     -7.31333720	    -45.00000000	    -40.46979195	     45.00000000	    -45.00000000	  -2773.39689721	     79.89113502	     26.23194650	     29.94147809	   2150.84240925	     40.00543010	     13.66049772	    -19.70221897
      8.53000000	     30.71986426	     23.50596270	     35.04713117	    -63.41218911	    852.34114812	    -47.62204302	     13.14875563	     34.31028027	     27.21468721	     45.00000000	    -45.00000000	  -1890.30148498	  -2446.09761452	     21.99700805	   -162.52585010	   -361.22738486	    151.73257572	     13.23436859	     13.51251883	     -7.08900048	    -45.00000000	    -40.44872734	     45.00000000	    -45.00000000	  -2773.27829793	     79.88266840	     26.33659323	     30.04131458	   2150.84847199	     40.09452927	     13.61463218	    -20.05890350
      8.54000000	     30.84684067	     23.39761688	     34.81090638	    -64.37020435	    854.03280771	    -47.59359606	     13.22109407	     34.16047188	     27.11950149	     45.00000000	    -45.00000000	  -1890.30573292	  -2445.96305004	     22.04952786	   -162.59832293	   -361.37930033	    151.66850169	     13.32433690	     13.48936159	     -7.01423345	    -45.00000000	    -40.45904126	     45.00000000	    -45.00000000	  -2773.21172348	     79.96595694	     26.37388337	     30.02625831	   2150.87529826	     40.26582870	     13.57808501	    -20.26335225
      8.55000000	     30.98196674	     23.30534271	     34.53948361	    -65.27281869	    855.63940515	    -47.54459564	     13.23839477	     34.19683065	     27.13059271	     45.00000000	    -45.00000000	  -1890.40914118	  -2445.98979483	     22.13692013	   -162.70330025	   -361.35789104	    151.69185380	     13.41925240	     13.41105353	     -6.84976086	    -45.00000000	    -40.55831839	     45.00000000	    -45.00000000	  -2773.13275900	     79.94128259	     26.42151401	     30.02696579	   2150.90835214	     40.47893320	     13.49412235	    -20.57517349
      8.56000000	     31.08184443	     23.24133762	     34.31916340	    -66.12658920	    857.15095093	    -47.47956257	     13.26536089	     34.06361491	     27.05600159	     45.00000000	    -45.00000000	  -1890.44700976	  -2445.88020560	     22.13216764	   -162.77606331	   -361.50940382	    151.83871219	     13.57095952	     13.38829388	     -6.76656800	    -45.00000000	    -40.63211028	     45.00000000	    -45.00000000	  -2773.09285385	     79.96956822	     26.43730110	     29.96212782	   2150.95634917	     40.75957705	     13.43112854	    -20.80716785
      8.57000000	     31.10842981	     23.26352195	     34.22171117	    -66.93920547	    858.55558959	    -47.40231057	     13.25122328	     34.08777034	     26.98834982	     45.00000000	    -45.00000000	  -1890.55670217	  -2445.86943214	     22.16899371	   -162.89068933	   -361.53455018	    152.07800574	     13.73124639	     13.30613062	     -6.55301654	    -45.00000000	    -40.86002035	     45.00000000	    -45.00000000	  -2772.91696019	     79.90513995	     26.43924326	     29.92749058	   2151.02673162	     41.08256386	     13.32180665	    -21.09269873
      8.58000000	     31.25390567	     23.21142610	     33.90462911	    -67.72241639	    859.84962793	    -47.31498358	     13.20534274	     33.97821683	     26.96062381	     45.00000000	    -45.00000000	  -1890.57004003	  -2445.80983067	     22.14827410	   -162.89277093	   -361.59827030	    152.43479841	     13.91475749	     13.28526443	     -6.44896825	    -45.00000000	    -40.95109094	     45.00000000	    -45.00000000	  -2772.90138999	     79.84893832	     26.48355500	     29.87965103	   2151.10187683	     41.43606661	     13.26601342	    -21.37444843
      8.59000000	     31.28439286	     23.25211628	     33.87418592	    -68.47903663	    861.02142373	    -47.21825032	     13.24268279	     34.05696103	     26.90405285	     45.00000000	    -45.00000000	  -1890.71716582	  -2445.80237017	     22.16753472	   -162.96314476	   -361.67963755	    152.85914897	     14.12021707	     13.19733942	     -6.44924882	    -45.00000000	    -40.92741926	     45.00000000	    -45.00000000	  -2772.84623061	     79.96955581	     26.48205455	     29.77145085	   2151.03658653	     41.82757501	     13.15389567	    -21.55885588
